<?xml version="1.0" encoding="utf-8"?>
<!-- Generator: Adobe Illustrator 23.0.1, SVG Export Plug-In . SVG Version: 6.00 Build 0)  -->
<svg version="1.1" id="Camada_1" xmlns="http://www.w3.org/2000/svg" xmlns:xlink="http://www.w3.org/1999/xlink" x="0px" y="0px"
	 viewBox="0 0 393.12 57.94" style="enable-background:new 0 0 393.12 57.94;" xml:space="preserve">
<style type="text/css">
	.st0{fill:#90C03A;}
</style>
<g>
	<path class="st0" d="M31.48,13.49h-6.44v11.75h10.69v8.07H25.04v12.03h9.27v11.61H0.98V45.34h4.25V13.49H0.98V1.89h43.03v18.33
		H31.48V13.49z"/>
	<path class="st0" d="M46.27,1.89h28.31v11.61h-4.25v31.85h4.25v11.61H46.27V45.34h4.25V13.49h-4.25V1.89z"/>
	<path class="st0" d="M117.75,1.89h24.77v11.61h-4.25v43.45h-19.89L97.65,25.03v20.31h4.25v11.61H77.13V45.34h4.25V13.49h-4.25V1.89
		h26.26L122,30.33V13.49h-4.25V1.89z"/>
	<path class="st0" d="M144.64,1.89h28.31v11.61h-4.25v31.85h4.25v11.61h-28.31V45.34h4.25V13.49h-4.25V1.89z"/>
	<path class="st0" d="M196.09,44.28c1.56,0,2.66-0.24,3.33-0.71c0.66-0.47,0.99-1.18,0.99-2.12c0-0.66-0.27-1.24-0.81-1.73
		c-0.54-0.5-1.64-1.07-3.29-1.73c-3.49-1.32-6.55-2.58-9.16-3.79s-4.79-2.54-6.51-4c-1.72-1.46-3.01-3.17-3.86-5.13
		c-0.85-1.96-1.27-4.33-1.27-7.11c0-2.64,0.41-5.01,1.24-7.11c0.82-2.1,2.17-3.89,4.03-5.38c1.86-1.49,4.34-2.62,7.43-3.4
		c3.09-0.78,6.9-1.17,11.43-1.17c4.1,0,7.97,0.41,11.61,1.24c3.63,0.83,6.65,1.92,9.06,3.29v12.67h-14.86c0-1.37-0.38-2.3-1.13-2.8
		c-0.75-0.5-1.68-0.74-2.76-0.74c-1.56,0-2.68,0.2-3.36,0.6c-0.68,0.4-1.03,1.1-1.03,2.09c0,0.8,0.36,1.39,1.1,1.77
		c0.73,0.38,1.83,0.8,3.29,1.27c2.74,0.9,5.32,1.84,7.75,2.83c2.43,0.99,4.56,2.22,6.4,3.68c1.84,1.46,3.29,3.23,4.35,5.31
		c1.06,2.08,1.59,4.62,1.59,7.64c0,6.13-1.98,10.7-5.94,13.69c-3.96,3-9.77,4.49-17.41,4.49c-4.34,0-8.52-0.38-12.53-1.13
		c-4.01-0.75-7.22-1.65-9.63-2.69V40.1h15.57c0,1.42,0.28,2.47,0.85,3.15C193.12,43.94,194.3,44.28,196.09,44.28z"/>
	<path class="st0" d="M255.26,1.89h27.67v11.61h-4.25v31.85h4.25v11.61h-27.67V45.34h3.61V33.66h-10.62v11.68h3.61v11.61h-27.67
		V45.34h4.25V13.49h-4.25V1.89h27.67v11.61h-3.61v10.76h10.62V13.49h-3.61V1.89z"/>
	<path class="st0" d="M318.38,13.49h-8.56v11.18h6.23v8.07h-6.23v12.6h8.56V34.16h15.85v22.79h-48.48V45.34H290V13.49h-4.25V1.89
		h48.48v21.37h-15.85V13.49z"/>
	<path class="st0" d="M337.92,1.89h29.44c3.63,0,7.02,0.46,10.16,1.38c3.14,0.92,5.86,2.47,8.17,4.64c2.31,2.17,4.13,5.01,5.45,8.53
		c1.32,3.52,1.98,7.84,1.98,12.99c0,5.19-0.66,9.53-1.98,13.02c-1.32,3.49-3.14,6.32-5.45,8.49c-2.31,2.17-5.04,3.72-8.17,4.64
		c-3.14,0.92-6.52,1.38-10.16,1.38h-29.44V45.34h4.25V13.49h-4.25V1.89z M366.08,45.34c1.6,0,2.81-0.41,3.61-1.24
		c0.8-0.83,1.2-2.16,1.2-4V18.73c0-1.84-0.42-3.17-1.27-4c-0.85-0.82-2.03-1.24-3.54-1.24h-4.1v31.85H366.08z"/>
</g>
</svg>
