<?xml version="1.0" encoding="utf-8"?>
<!-- Generator: Adobe Illustrator 23.0.1, SVG Export Plug-In . SVG Version: 6.00 Build 0)  -->
<svg version="1.1" id="Camada_1" xmlns="http://www.w3.org/2000/svg" xmlns:xlink="http://www.w3.org/1999/xlink" x="0px" y="0px"
	 viewBox="0 0 260.19 135.89" style="enable-background:new 0 0 260.19 135.89;" xml:space="preserve">
<style type="text/css">
	.st0{fill:#F5A248;}
	.st1{fill:#010202;}
</style>
<g>
	<rect x="1" y="1" class="st0" width="257" height="61.18"/>
</g>
<g>
	<path class="st1" d="M31.47,30.64H56.8v10.66h-3.58V55.6c-1.1,0.53-2.37,1.06-3.83,1.61c-1.46,0.55-3.12,1.04-5.01,1.47
		c-1.88,0.43-4,0.79-6.33,1.07c-2.34,0.29-4.94,0.43-7.8,0.43c-4.29,0-8.16-0.53-11.59-1.57c-3.43-1.05-6.36-2.72-8.76-5.01
		c-2.41-2.29-4.26-5.26-5.54-8.91S2.43,36.6,2.43,31.35c0-5.2,0.64-9.63,1.93-13.31c1.29-3.67,3.12-6.65,5.51-8.94
		c2.38-2.29,5.29-3.96,8.73-5.01c3.43-1.05,7.27-1.57,11.52-1.57c2.91,0,5.54,0.14,7.9,0.43c2.36,0.29,4.48,0.66,6.37,1.11
		c1.88,0.45,3.55,0.95,5.01,1.5c1.45,0.55,2.73,1.09,3.83,1.61v17.1H35.34v-3.36c0-2.05-0.42-3.51-1.25-4.36
		c-0.83-0.86-2.16-1.29-3.97-1.29c-1.81,0-3.14,0.43-3.97,1.29c-0.83,0.86-1.25,2.31-1.25,4.36V41.8c0,2.05,0.42,3.51,1.25,4.36
		c0.83,0.86,2.16,1.29,3.97,1.29c1.81,0,3.14-0.43,3.97-1.29c0.83-0.86,1.25-2.31,1.25-4.36v-0.5h-3.86V30.64z"/>
	<path class="st1" d="M86.13,47.45h4.29L89.2,41.8h-9.66l-1.14,5.65h4.29v11.73H58.23V47.45h2.86L73.18,3.52h26.04l12.09,43.92h2.86
		v11.73H86.13V47.45z M81.12,34.21h6.58L84.77,19.9h-0.72L81.12,34.21z"/>
	<path class="st1" d="M116.32,3.52h34.19l8.16,24.54l7.87-24.54h32.98v11.73h-4.29v32.19h4.29v11.73H170.9V47.45h4.29V19.19
		l-14.24,39.99h-7.73l-16.17-40.13v28.4h4.29v11.73h-25.04V47.45h4.29V15.25h-4.29V3.52z"/>
	<path class="st1" d="M235.5,15.25h-8.66v11.3h6.29v8.15h-6.29v12.73h8.66v-11.3h16.02v23.03h-49V47.45h4.29V15.25h-4.29V3.52h49
		v21.6H235.5V15.25z"/>
</g>
<g>
	<path class="st0" d="M65.72,100.55c0,6.24-0.77,11.53-2.3,15.87s-3.7,7.87-6.51,10.6c-2.81,2.72-6.23,4.71-10.26,5.96
		c-4.03,1.25-8.51,1.87-13.45,1.87c-4.94,0-9.42-0.63-13.45-1.87c-4.03-1.25-7.45-3.23-10.26-5.96c-2.81-2.72-4.98-6.25-6.51-10.6
		s-2.3-9.63-2.3-15.87c0-6.18,0.77-11.46,2.3-15.83c1.53-4.37,3.7-7.92,6.51-10.64s6.23-4.71,10.26-5.96
		c4.03-1.25,8.51-1.87,13.45-1.87c4.94,0,9.42,0.63,13.45,1.87c4.03,1.25,7.45,3.23,10.26,5.96s4.98,6.27,6.51,10.64
		C64.96,89.09,65.72,94.37,65.72,100.55z M33.21,119.7c1.93,0,3.38-0.5,4.34-1.49c0.96-0.99,1.45-2.6,1.45-4.81V87.7
		c0-2.21-0.48-3.81-1.45-4.81c-0.97-0.99-2.41-1.49-4.34-1.49c-1.93,0-3.38,0.5-4.34,1.49c-0.97,0.99-1.45,2.6-1.45,4.81v25.7
		c0,2.21,0.48,3.82,1.45,4.81C29.84,119.21,31.28,119.7,33.21,119.7z"/>
	<path class="st0" d="M97.21,81.41h-4.26l5.87,33.62h0.85l5.87-33.62h-4.26V67.45h28.26v13.96h-3.4l-13.53,52.26H81.64L68.11,81.41
		h-3.4V67.45h32.51V81.41z"/>
	<path class="st0" d="M171,81.41h-10.3v13.45h7.49v9.7h-7.49v15.15H171v-13.45h19.06v27.4h-58.3V119.7h5.11v-38.3h-5.11V67.45h58.3
		v25.7H171V81.41z"/>
	<path class="st0" d="M223.26,119.7h5.62v13.96h-34.55V119.7h5.11v-38.3h-5.11V67.45h39.92c3.46,0,6.6,0.34,9.4,1.02
		c2.81,0.68,5.18,1.77,7.11,3.28c1.93,1.5,3.42,3.48,4.47,5.92c1.05,2.44,1.57,5.42,1.57,8.94c0,3.75-0.75,7.01-2.26,9.79
		c-1.5,2.78-3.7,4.74-6.6,5.87l0.09,0.85c5.45,0.85,8.17,4.2,8.17,10.04v6.55h4v13.96h-26.98v-20c0-1.7-0.18-3.08-0.55-4.13
		c-0.37-1.05-0.97-1.84-1.79-2.38c-0.82-0.54-1.86-0.91-3.11-1.11c-1.25-0.2-2.75-0.3-4.51-0.3V119.7z M227.85,95.36
		c1.64,0,2.88-0.43,3.7-1.28c0.82-0.85,1.23-2.24,1.23-4.17v-3.06c0-1.93-0.41-3.32-1.23-4.17c-0.82-0.85-2.06-1.28-3.7-1.28h-4.6
		v13.96H227.85z"/>
</g>
</svg>
