<svg id="Camada_1" data-name="Camada 1" xmlns="http://www.w3.org/2000/svg" viewBox="0 0 523.8 68"><defs><style>.cls-1{fill:#e8af1f;}</style></defs><title>logo</title><rect class="cls-1" x="261.43" width="262.36" height="68"/><path class="cls-1" d="M47.89,58.18c0,.41-.28.69-.85.85a39,39,0,0,1-6.31.27A43,43,0,0,1,34.49,59,1.83,1.83,0,0,1,33,57.5q-1.16-4.89-1.8-5.23c-.36-.15-3.4-.23-9.1-.23-3.85,0-5.89.1-6.14.3-.39.36-.82,1.58-1.29,3.63q-.64,2.82-1.56,3.06a57.4,57.4,0,0,1-7.74.27q-5.21,0-5.2-1T7.87,36.63q8.32-22.51,9-24.75c.27-.86.59-1.29,1-1.29.61,0,1.56.06,2.84.17s2.23.17,2.87.17,1.51,0,2.69-.12,2.08-.12,2.67-.12c.43,0,.83.38,1.19,1.12q1.66,3.57,9.7,24.44T47.89,58.18ZM23.83,27.26c-.48,1-1.28,3.16-2.41,6.48A35.73,35.73,0,0,0,19.58,40c0,.41.68.64,2,.68.7,0,1.86.07,3.46.07s2.32-.18,2.48-.54a1.25,1.25,0,0,0,.07-.48,33.18,33.18,0,0,0-1.56-6.18A49.18,49.18,0,0,0,23.83,27.26Z" transform="translate(-0.2)"/><path class="cls-1" d="M91,51.36a2.58,2.58,0,0,1-.71,1.42Q84,60.22,73.69,60.22,63.1,60.22,56.51,53q-6.4-7-6.41-17.65a25.71,25.71,0,0,1,6.28-17.52A21.11,21.11,0,0,1,73,10.29q11,0,17.25,6.75A2.14,2.14,0,0,1,91,18.37q0,.64-2.36,4.78a28.65,28.65,0,0,1-3,4.65.93.93,0,0,1-.68.27,8.8,8.8,0,0,1-1.7-1.35,17.62,17.62,0,0,0-3.6-2.55,12.08,12.08,0,0,0-5.56-1.36,9.7,9.7,0,0,0-8,3.74,13.32,13.32,0,0,0-2.75,8.55,13.57,13.57,0,0,0,2.75,8.65,9.62,9.62,0,0,0,8,3.81,12.63,12.63,0,0,0,5.6-1.29,17.52,17.52,0,0,0,3.53-2.38,8.62,8.62,0,0,1,1.66-1.29,1,1,0,0,1,.68.37c.36.41,1.35,1.83,3,4.25A24.89,24.89,0,0,1,91,51.36Z" transform="translate(-0.2)"/><path class="cls-1" d="M129.42,48.47a44.76,44.76,0,0,1-.57,5.37,20.32,20.32,0,0,1-1.09,5,1.26,1.26,0,0,1-1.12.65c-.2,0-.54,0-1-.1q-2.48-.34-14.46-.34l-7.77,0-7.74,0c-.75,0-1.12-.33-1.12-1q0-3.8.42-11.42c.29-5.08.43-8.88.43-11.42s-.14-7.39-.41-14.42q-.1-2.72-.37-8.12l0-.47c0-.52.24-.78.85-.78,1.68,0,4.19,0,7.56.13s5.87.14,7.55.14,4.14,0,7.46-.14,5.82-.13,7.47-.13q1.77,0,2,1.32c.11.52.29,2.1.53,4.74s.35,4.23.35,4.8-.22.71-.68.71L127,23q-9-.75-16.23-.75c-1.19,0-1.93.28-2.2.85a10.77,10.77,0,0,0-.17,2.61,4.76,4.76,0,0,0,.68,3.06,2.9,2.9,0,0,0,2.2.64c.23,0,.67,0,1.33-.05s1.2,0,1.63,0q4.27,0,8.65-.24l1.87-.17a16.44,16.44,0,0,1,1.83-.13c.55,0,.82.26.82.78a45.66,45.66,0,0,0-.61,5.19,52,52,0,0,0-.28,5.43c0,.46-.32.68-1,.68l-3-.34c-1.29-.13-4.24-.2-8.83-.2H110c-.93,0-1.47.22-1.63.68q0,.16,0,2.1a9.91,9.91,0,0,0,.34,3.33c.38.86,1.83,1.37,4.34,1.53h5q1.8,0,5.34-.33c2.37-.21,4.14-.32,5.32-.32C129.17,47.25,129.42,47.66,129.42,48.47Z" transform="translate(-0.2)"/><path class="cls-1" d="M174.4,58.69c0,.16-.23.27-.68.34a60.71,60.71,0,0,1-6.48.2,59.93,59.93,0,0,1-6.05-.2,3.78,3.78,0,0,1-.84-.17,1.45,1.45,0,0,1-.48-.68c-.34-.88-.84-2.19-1.49-3.94q-1.33-3.39-4.14-10c-.41-.88-1.35-1.37-2.82-1.46.68,0-.49.07-3.5.07-.34,0-.51.58-.51,1.73,0,1.54.14,3.83.43,6.89s.42,5.35.42,6.89c0,.38-.1.61-.3.68l-1,.07q-2,.13-6.25.13a46.51,46.51,0,0,1-5.84-.2c-.65-.14-1-.49-1-1.05q0-3.73.35-11.27c.24-5,.36-8.79.36-11.31Q134.65,21,134,13l0-.47c0-.39.34-.65,1.07-.78s4.19-.27,10.37-.41c4.19-.09,7.52-.14,10-.14q7.74,0,12.63,3.5,5.53,3.93,5.53,11.37A18.41,18.41,0,0,1,172.16,34a16.2,16.2,0,0,1-5.26,5.74c-.52.36-.78.7-.78,1t4.14,8.52Q174.4,57.82,174.4,58.69ZM160.14,28.24q0-4.14-2.71-5.73c-1.41-.82-3.6-1.23-6.59-1.23-2.15,0-3.29.33-3.43,1a60.9,60.9,0,0,0-.2,6.65q0,.78,0,2.31c0,1,0,1.78,0,2.27,0,.12.36.23,1.08.34a28.92,28.92,0,0,0,4.35.31Q160.14,34.15,160.14,28.24Z" transform="translate(-0.2)"/><path class="cls-1" d="M211.29,21.79c0,.46-.25.68-.74.68q-1.29,0-10.22-.51-.21,8.59-.2,12,0,4,.32,12t.32,12c0,.43-.1.71-.3.82a4.7,4.7,0,0,1-.95.17,49.17,49.17,0,0,1-6,.27A46.89,46.89,0,0,1,187.4,59a1,1,0,0,1-1-1.05q0-4,.34-12t.34-12q0-2.66-.28-11.82c-4.52.46-8.13.68-10.82.68-.37,0-.55-.11-.55-.34a19.83,19.83,0,0,1,.48-2.61c.36-1.58.56-2.55.61-2.89.07-1.06.15-2.12.24-3.19.16-1.69.43-2.54.81-2.54l.48,0a136,136,0,0,0,16.26.71q3,0,11.27-.64l4.44-.34a2,2,0,0,1,.78.08c.07.06.11.28.14.67,0,.61,0,1.46-.07,2.54s-.07,2.05-.07,2.55a21.87,21.87,0,0,0,.22,2.49A19.84,19.84,0,0,1,211.29,21.79Z" transform="translate(-0.2)"/><path class="cls-1" d="M249.68,48.47a44.76,44.76,0,0,1-.57,5.37,20.32,20.32,0,0,1-1.09,5,1.27,1.27,0,0,1-1.12.65c-.2,0-.54,0-1-.1q-2.48-.34-14.46-.34l-7.77,0-7.74,0c-.75,0-1.12-.33-1.12-1q0-3.8.42-11.42c.29-5.08.43-8.88.43-11.42s-.14-7.39-.41-14.42q-.1-2.72-.37-8.12l0-.47c0-.52.24-.78.85-.78,1.68,0,4.19,0,7.55.13s5.88.14,7.56.14,4.14,0,7.46-.14,5.82-.13,7.47-.13q1.77,0,2,1.32c.11.52.29,2.1.52,4.74s.36,4.23.36,4.8A.62.62,0,0,1,248,23l-.71,0q-9-.75-16.23-.75c-1.2,0-1.93.28-2.2.85a10.24,10.24,0,0,0-.17,2.61,4.76,4.76,0,0,0,.68,3.06,2.9,2.9,0,0,0,2.2.64c.23,0,.67,0,1.33-.05s1.2,0,1.63,0q4.28,0,8.65-.24l1.87-.17a16.44,16.44,0,0,1,1.83-.13c.54,0,.82.26.82.78a46.26,46.26,0,0,0-.62,5.19q-.27,2.72-.27,5.43c0,.46-.32.68-1,.68l-3.06-.34q-1.93-.2-8.82-.2h-3.6c-.93,0-1.47.22-1.63.68q0,.16,0,2.1a9.91,9.91,0,0,0,.34,3.33c.38.86,1.83,1.37,4.34,1.53h5q1.8,0,5.34-.33c2.37-.21,4.14-.32,5.32-.32C249.43,47.25,249.68,47.66,249.68,48.47Z" transform="translate(-0.2)"/><path d="M311.41,51.36a2.54,2.54,0,0,1-.72,1.42q-6.24,7.44-16.59,7.44-10.59,0-17.18-7.23-6.42-7-6.42-17.65a25.76,25.76,0,0,1,6.28-17.52,21.13,21.13,0,0,1,16.67-7.53q11,0,17.24,6.75a2.09,2.09,0,0,1,.68,1.33q0,.64-2.36,4.78a27.21,27.21,0,0,1-3,4.65.91.91,0,0,1-.68.27,9.32,9.32,0,0,1-1.69-1.35,17.62,17.62,0,0,0-3.6-2.55,12.12,12.12,0,0,0-5.57-1.36,9.69,9.69,0,0,0-8,3.74,13.27,13.27,0,0,0-2.75,8.55,13.51,13.51,0,0,0,2.75,8.65,9.62,9.62,0,0,0,8,3.81,12.6,12.6,0,0,0,5.6-1.29,17.25,17.25,0,0,0,3.53-2.38,8.48,8.48,0,0,1,1.67-1.29A1,1,0,0,1,306,43c.37.41,1.35,1.83,3,4.25A24.89,24.89,0,0,1,311.41,51.36Z" transform="translate(-0.2)"/><path d="M359.84,58.18c0,.41-.28.69-.85.85a39.13,39.13,0,0,1-6.31.27,43.18,43.18,0,0,1-6.25-.27A1.83,1.83,0,0,1,345,57.5q-1.16-4.89-1.8-5.23a78.45,78.45,0,0,0-9.1-.23q-5.77,0-6.14.3c-.39.36-.82,1.58-1.29,3.63-.43,1.88-.95,2.9-1.57,3.06a57.09,57.09,0,0,1-7.73.27q-5.21,0-5.2-1t7.67-21.69q8.32-22.51,9-24.75c.27-.86.59-1.29.95-1.29.61,0,1.56.06,2.84.17s2.23.17,2.86.17,1.52,0,2.7-.12,2.08-.12,2.67-.12c.43,0,.82.38,1.19,1.12q1.67,3.57,9.7,24.44T359.84,58.18ZM335.78,27.26c-.48,1-1.28,3.16-2.41,6.48A34.75,34.75,0,0,0,331.53,40c0,.41.68.64,2,.68.7,0,1.86.07,3.46.07s2.32-.18,2.48-.54a1.25,1.25,0,0,0,.07-.48A33.18,33.18,0,0,0,338,33.5,49.18,49.18,0,0,0,335.78,27.26Z" transform="translate(-0.2)"/><path d="M403.76,58.69c0,.16-.22.27-.68.34a60.71,60.71,0,0,1-6.48.2,59.69,59.69,0,0,1-6-.2,4,4,0,0,1-.85-.17,1.6,1.6,0,0,1-.47-.68c-.34-.88-.84-2.19-1.5-3.94q-1.32-3.39-4.14-10c-.41-.88-1.35-1.37-2.82-1.46.68,0-.48.07-3.49.07-.34,0-.51.58-.51,1.73,0,1.54.14,3.83.42,6.89s.43,5.35.43,6.89c0,.38-.1.61-.31.68l-.95.07q-2,.13-6.24.13a46.4,46.4,0,0,1-5.84-.2q-1-.21-1-1.05,0-3.73.36-11.27c.24-5,.36-8.79.36-11.31Q364,21,363.37,13l0-.47c0-.39.33-.65,1.07-.78s4.19-.27,10.37-.41q6.27-.13,10-.14,7.74,0,12.63,3.5,5.52,3.93,5.53,11.37A18.4,18.4,0,0,1,401.52,34a16.11,16.11,0,0,1-5.26,5.74c-.52.36-.78.7-.78,1t4.14,8.52Q403.76,57.82,403.76,58.69ZM389.51,28.24q0-4.14-2.72-5.73c-1.4-.82-3.6-1.23-6.58-1.23-2.15,0-3.29.33-3.43,1a58.22,58.22,0,0,0-.2,6.65q0,.78,0,2.31c0,1,0,1.78,0,2.27,0,.12.36.23,1.09.34a28.88,28.88,0,0,0,4.34.31Q389.51,34.15,389.51,28.24Z" transform="translate(-0.2)"/><path d="M440.66,21.79c0,.46-.25.68-.75.68q-1.29,0-10.21-.51-.21,8.59-.21,12,0,4,.33,12t.32,12c0,.43-.1.71-.31.82a4.53,4.53,0,0,1-.95.17,49.09,49.09,0,0,1-6,.27,47.18,47.18,0,0,1-6.15-.27,1,1,0,0,1-.95-1.05q0-4,.34-12t.34-12q0-2.66-.27-11.82c-4.52.46-8.13.68-10.83.68-.36,0-.54-.11-.54-.34a19.83,19.83,0,0,1,.48-2.61c.36-1.58.56-2.55.61-2.89.06-1.06.14-2.12.23-3.19.16-1.69.43-2.54.82-2.54l.47,0a136.2,136.2,0,0,0,16.26.71c2,0,5.79-.21,11.27-.64l4.45-.34a2,2,0,0,1,.78.08c.07.06.11.28.13.67,0,.61,0,1.46-.06,2.54s-.07,2.05-.07,2.55a19.75,19.75,0,0,0,.22,2.49A19.84,19.84,0,0,1,440.66,21.79Z" transform="translate(-0.2)"/><path d="M489.06,58.18c0,.41-.28.69-.85.85a39.13,39.13,0,0,1-6.31.27,43.18,43.18,0,0,1-6.25-.27,1.82,1.82,0,0,1-1.45-1.53q-1.15-4.89-1.8-5.23a78.45,78.45,0,0,0-9.1-.23q-5.78,0-6.14.3c-.39.36-.82,1.58-1.29,3.63-.43,1.88-.95,2.9-1.57,3.06a57.09,57.09,0,0,1-7.73.27q-5.2,0-5.2-1T449,36.63q8.32-22.51,9-24.75c.27-.86.59-1.29.95-1.29.61,0,1.56.06,2.84.17s2.23.17,2.86.17,1.52,0,2.7-.12,2.08-.12,2.67-.12c.43,0,.82.38,1.19,1.12q1.65,3.57,9.7,24.44T489.06,58.18ZM465,27.26c-.48,1-1.28,3.16-2.41,6.48A34.75,34.75,0,0,0,460.75,40c0,.41.68.64,2,.68.7,0,1.86.07,3.46.07s2.32-.18,2.48-.54a1.25,1.25,0,0,0,.07-.48,33.18,33.18,0,0,0-1.56-6.18A49.18,49.18,0,0,0,465,27.26Z" transform="translate(-0.2)"/><path d="M515.67,43.42q0,6.88-5.8,11.81a24.88,24.88,0,0,1-12.39,5.53l-.44,0c-.52,0-1.68-1.59-3.46-4.77s-2.69-5.11-2.69-5.82c0-.24.17-.4.51-.47a36.23,36.23,0,0,0,6.52-1.9q3.52-1.77,3.53-5.23,0-2.2-2.31-4.92-4-4.62-4.34-5.13a13.8,13.8,0,0,1-2.34-7.8q0-6.21,5.73-10.32A25.73,25.73,0,0,1,509.7,10a4.94,4.94,0,0,1,.58,0c.34,0,.61.27.81.82q.89,2.47,4.11,9a.75.75,0,0,1,.1.34c0,.38-.2.57-.61.57a6.42,6.42,0,0,1-.92-.1,6.52,6.52,0,0,0-1-.1,8,8,0,0,0-4.28,1.12,4,4,0,0,0-2.21,3.6q0,2.07,2.45,5.09c2.87,3.62,4.38,5.52,4.51,5.7A13.62,13.62,0,0,1,515.67,43.42Z" transform="translate(-0.2)"/></svg>